<svg xmlns="http://www.w3.org/2000/svg" viewBox="0 0 951.48 793.5"><defs><style>.cls-1,.cls-24{opacity:0.36;}.cls-2{fill:none;}.cls-3{fill:#e9e9e9;}.cls-4{fill:#efefef;}.cls-5{fill:#dedede;}.cls-6{fill:#f9f9f9;}.cls-7{fill:#f4f4f4;}.cls-8{fill:#e4e4e4;}.cls-15,.cls-26,.cls-27,.cls-31,.cls-33,.cls-36,.cls-46,.cls-9{fill:#fff;}.cls-10,.cls-18{fill:#577afa;}.cls-11{fill:#2e353a;}.cls-12{fill:#71403e;}.cls-13{fill:#561616;}.cls-14,.cls-18{opacity:0.2;}.cls-14,.cls-15,.cls-17,.cls-18,.cls-40{isolation:isolate;}.cls-15,.cls-16,.cls-39,.cls-46{opacity:0.5;}.cls-17{opacity:0.3;}.cls-19{fill:#ebebeb;}.cls-20{fill:#f0f0f0;}.cls-21{fill:#e0e0e0;}.cls-22,.cls-24{fill:#f5f5f5;}.cls-23{fill:#e6e6e6;}.cls-25{fill:#407bff;}.cls-26{opacity:0.7;}.cls-27,.cls-30,.cls-42{opacity:0.3;}.cls-28{opacity:0.8;}.cls-29,.cls-31{opacity:0.6;}.cls-32,.cls-43{opacity:0.1;}.cls-33,.cls-38{opacity:0.4;}.cls-34{fill:#263238;}.cls-35,.cls-36,.cls-40{opacity:0.2;}.cls-37{fill:#ffc3bd;}.cls-41{fill:#ed847e;}.cls-44{fill:#7f3e3b;}.cls-45{fill:#630f0f;}</style></defs><title>bg2</title><g id="Background_Complete" data-name="Background Complete"><g id="Background_Complete-2" data-name="Background Complete" class="cls-1"><rect class="cls-2" x="451.48" y="748.34" width="500" height="0.25"/><rect class="cls-3" x="783.59" y="755.15" width="97.6" height="0.25"/><rect class="cls-3" x="740.48" y="760.92" width="46.67" height="0.25"/><rect class="cls-3" x="882.19" y="764.43" width="19.19" height="0.25"/><rect class="cls-3" x="577.95" y="761.05" width="92.53" height="0.25"/><rect class="cls-3" x="549.15" y="761.05" width="19.9" height="0.25"/><rect class="cls-3" x="509.27" y="756.83" width="32.86" height="0.25"/><path class="cls-2" d="M631,703.74H437.93a5.71,5.71,0,0,1-5.7-5.71V426.6a5.71,5.71,0,0,1,5.7-5.66H631a5.71,5.71,0,0,1,5.71,5.71h0V698A5.71,5.71,0,0,1,631,703.74ZM437.93,421.14a5.46,5.46,0,0,0-5.45,5.46V698a5.46,5.46,0,0,0,5.45,5.46H631a5.48,5.48,0,0,0,5.46-5.46V426.6a5.47,5.47,0,0,0-5.46-5.46Z" transform="translate(57.46)"/><path class="cls-2" d="M847.33,703.74H654.23a5.72,5.72,0,0,1-5.71-5.71V426.6a5.72,5.72,0,0,1,5.71-5.66h193.1A5.71,5.71,0,0,1,853,426.6V698A5.72,5.72,0,0,1,847.33,703.74Zm-193.1-282.6a5.46,5.46,0,0,0-5.46,5.46V698a5.47,5.47,0,0,0,5.46,5.46h193.1a5.48,5.48,0,0,0,5.46-5.46V426.6a5.47,5.47,0,0,0-5.46-5.46Z" transform="translate(57.46)"/><polygon class="cls-4" points="842.55 739.13 540.51 739.13 522.5 534.25 824.54 534.25 842.55 739.13"/><polygon class="cls-5" points="535.18 745.66 540.51 739.13 522.5 534.25 517.17 540.87 535.18 745.66"/><path class="cls-6" d="M487,731.36,470.45,542.63a3.41,3.41,0,0,1,3.11-3.69H759.7a3.39,3.39,0,0,1,3.39,3.1l16.59,188.73a3.4,3.4,0,0,1-3.09,3.68l-.3,0H490.43A3.4,3.4,0,0,1,487,731.36Z" transform="translate(57.46)"/><polygon class="cls-5" points="582.97 739.13 537.46 739.13 534.24 748.34 579.75 748.34 582.97 739.13"/><polygon class="cls-7" points="582.97 739.13 882.19 739.13 878.97 748.34 579.75 748.34 582.97 739.13"/><polygon class="cls-5" points="706.18 739.13 763.54 739.13 762.92 745.16 705.57 745.16 706.18 739.13"/><path class="cls-5" d="M735.64,520.8h72.47c6,39.76-21.77,72.47-61.53,72.47a80.87,80.87,0,0,1-37.7-9.71Z" transform="translate(57.46)"/><path class="cls-3" d="M735.64,520.8l38.19-55.51a90.16,90.16,0,0,1,22.86,24.89,81.76,81.76,0,0,1,11.42,30.62Z" transform="translate(57.46)"/><path class="cls-8" d="M735.64,520.8l-10.95-72.47a77.67,77.67,0,0,1,25.45,4.38,87.56,87.56,0,0,1,23.69,12.58Z" transform="translate(57.46)"/><path class="cls-4" d="M735.64,520.8l-26.76,62.76c-24.35-12.92-41.81-36.9-45.71-62.76-6-39.75,21.76-72.47,61.52-72.47Z" transform="translate(57.46)"/><path class="cls-3" d="M646.17,650.13h64.29a62.23,62.23,0,0,1,.32,16.64,56,56,0,0,1-4.08,15.5Z" transform="translate(57.46)"/><path class="cls-5" d="M646.17,650.13l1.61-63.31a77.33,77.33,0,0,1,41.4,22c11.46,11.57,19,26.21,21.28,41.32Z" transform="translate(57.46)"/><path class="cls-4" d="M646.17,650.13l-57.08,22a71.6,71.6,0,0,1-7.2-22c-5.33-35.27,19.31-64.29,54.57-64.29a66.16,66.16,0,0,1,11.32,1Z" transform="translate(57.46)"/><path class="cls-9" d="M646.17,650.13l60.53,32.14c-8.47,19.87-27.88,32.14-50.81,32.14-27,0-53.75-17-66.8-42.29Z" transform="translate(57.46)"/></g><g id="Shadow" class="cls-1"><ellipse id="_Path_" data-name=" Path " class="cls-7" cx="701.48" cy="782.18" rx="193.89" ry="11.32"/></g><g id="Setup_analytics" data-name="Setup analytics" class="cls-1"><path class="cls-9" d="M634.61,605.33H544.53a11.52,11.52,0,0,1-11.24-10.39l-4.51-55.38a9.43,9.43,0,0,1,9.55-10.4H628.4a11.52,11.52,0,0,1,11.24,10.4l4.51,55.38a9.5,9.5,0,0,1-9.54,10.39Z" transform="translate(57.46)"/><path class="cls-10" d="M634.61,605.76H544.53a11.93,11.93,0,0,1-11.67-10.82l-4.51-55.39a9.91,9.91,0,0,1,8.89-10.82,10.29,10.29,0,0,1,1.11,0h90.07a11.93,11.93,0,0,1,11.67,10.79l4.49,55.46a9.9,9.9,0,0,1-8.89,10.81,10.31,10.31,0,0,1-1.11,0Zm-96.28-76.17a9,9,0,0,0-9.17,8.83,9.94,9.94,0,0,0,.05,1.09l4.51,55.43a11.07,11.07,0,0,0,10.81,10h90.08a9,9,0,0,0,9.16-8.83,9.16,9.16,0,0,0,0-1.17l-4.51-55.39a11.06,11.06,0,0,0-10.81-10Z" transform="translate(57.46)"/><path class="cls-5" d="M610.16,589.16a28.06,28.06,0,0,1-13.24,8l-1.49-4.22c11.09-3,18.6-13.38,17.6-25.67a28.93,28.93,0,0,0-9.31-18.78l2.87-3.13C619.59,557.35,621.2,577.13,610.16,589.16Z" transform="translate(57.46)"/><path class="cls-11" d="M606.59,545.33l-2.87,3.13a28.75,28.75,0,0,0-19.42-7.78,24.27,24.27,0,0,0-18.14,7.79l-3.39-3.14a28.54,28.54,0,0,1,21.17-9.08A33.6,33.6,0,0,1,606.59,545.33Z" transform="translate(57.46)"/><path class="cls-10" d="M596.92,597.18c-10.45,2.85-22.13-.21-30.58-8-13-12-14.61-31.81-3.57-43.83l3.39,3.14a24.48,24.48,0,0,0-6.25,18.77c1.19,14.67,14.05,26.56,28.72,26.56a26.5,26.5,0,0,0,6.8-.89Z" transform="translate(57.46)"/><rect class="cls-10" x="562.15" y="439.63" width="7.22" height="0.87"/><rect class="cls-10" x="538.7" y="439.63" width="16.44" height="0.87"/><path class="cls-9" d="M574.16,519.23H484.09a11.52,11.52,0,0,1-11.24-10.39l-4.51-55.39a9.46,9.46,0,0,1,8.48-10.35,9.57,9.57,0,0,1,1.07,0H568a11.52,11.52,0,0,1,11.24,10.39l4.51,55.39a9.46,9.46,0,0,1-8.48,10.34A9.69,9.69,0,0,1,574.16,519.23Z" transform="translate(57.46)"/><path class="cls-10" d="M574.16,519.67H484.09a11.94,11.94,0,0,1-11.67-10.79l-4.51-55.39a9.91,9.91,0,0,1,8.89-10.82,10.29,10.29,0,0,1,1.11,0H568a11.93,11.93,0,0,1,11.67,10.79l4.51,55.39a9.9,9.9,0,0,1-8.89,10.81,10.31,10.31,0,0,1-1.11,0Zm-96.27-76.18a9,9,0,0,0-9.17,8.83,10.12,10.12,0,0,0,0,1.1l4.51,55.39a11.07,11.07,0,0,0,10.81,10h90.07a9,9,0,0,0,9.16-8.83,7.89,7.89,0,0,0,0-1.09l-4.51-55.39a11.06,11.06,0,0,0-10.81-10Z" transform="translate(57.46)"/><polygon class="cls-5" points="533.95 458.95 581.68 458.95 581.29 454.24 533.56 454.24 533.95 458.95"/><polygon class="cls-10" points="629.41 458.95 581.68 458.95 581.29 454.24 629.03 454.24 629.41 458.95"/><polygon class="cls-5" points="534.95 471.23 548.56 471.23 548.18 466.51 534.56 466.51 534.95 471.23"/><polygon class="cls-10" points="630.41 471.23 548.56 471.23 548.18 466.51 630.03 466.51 630.41 471.23"/><polygon class="cls-5" points="535.95 483.5 578.43 483.5 578.05 478.79 535.56 478.79 535.95 483.5"/><polygon class="cls-10" points="631.41 483.5 578.43 483.5 578.05 478.79 631.03 478.79 631.41 483.5"/><polygon class="cls-5" points="536.95 495.78 609.46 495.78 609.07 491.06 536.56 491.06 536.95 495.78"/><polygon class="cls-10" points="632.41 495.78 609.46 495.78 609.07 491.06 632.02 491.06 632.41 495.78"/><polygon class="cls-5" points="537.94 508.05 571.48 508.05 571.1 503.34 537.56 503.34 537.94 508.05"/><polygon class="cls-10" points="633.41 508.05 571.48 508.05 571.1 503.34 633.02 503.34 633.41 508.05"/><path class="cls-9" d="M697.3,519.23H607.23A11.51,11.51,0,0,1,596,508.84l-4.51-55.39A9.46,9.46,0,0,1,600,443.1a8.87,8.87,0,0,1,1,0H691.1a11.52,11.52,0,0,1,11.24,10.39l4.51,55.39a9.46,9.46,0,0,1-8.48,10.34A9.69,9.69,0,0,1,697.3,519.23Z" transform="translate(57.46)"/><path class="cls-10" d="M697.3,519.67H607.23a12,12,0,0,1-11.68-10.79L591,453.49a9.91,9.91,0,0,1,8.89-10.82,10.29,10.29,0,0,1,1.11,0H691.1a11.93,11.93,0,0,1,11.67,10.79l4.51,55.39a9.9,9.9,0,0,1-8.89,10.81,10.31,10.31,0,0,1-1.11,0ZM601,443.49a9,9,0,0,0-9.16,8.84,9.94,9.94,0,0,0,0,1.09l4.51,55.39a11.07,11.07,0,0,0,10.81,10H697.3a9,9,0,0,0,9.16-8.83,7.89,7.89,0,0,0,0-1.09l-4.51-55.39a11.06,11.06,0,0,0-10.81-10Z" transform="translate(57.46)"/><polygon class="cls-5" points="709.61 508.05 708.02 508.05 703.64 454.24 705.23 454.24 709.61 508.05"/><polygon class="cls-10" points="712.01 485.69 701.98 485.69 700.26 464.66 710.3 464.66 712.01 485.69"/><polygon class="cls-5" points="689.86 508.05 688.27 508.05 683.89 454.24 685.48 454.24 689.86 508.05"/><polygon class="cls-10" points="692.65 490.36 682.61 490.36 681.11 471.93 691.14 471.93 692.65 490.36"/><polygon class="cls-5" points="670.12 508.05 668.53 508.05 664.15 454.24 665.74 454.24 670.12 508.05"/><polygon class="cls-11" points="671.67 475.2 661.64 475.2 660.61 462.54 670.64 462.54 671.67 475.2"/><polygon class="cls-5" points="729.35 508.05 727.76 508.05 723.38 454.24 724.97 454.24 729.35 508.05"/><polygon class="cls-11" points="732.72 497.63 722.69 497.63 720.01 464.66 730.04 464.66 732.72 497.63"/><polygon class="cls-5" points="749.1 508.05 747.5 508.05 743.12 454.24 744.71 454.24 749.1 508.05"/><polygon class="cls-10" points="752.79 501.58 742.76 501.58 740.61 475.18 750.64 475.18 752.79 501.58"/><path class="cls-9" d="M600.91,690.71H510.83a11.52,11.52,0,0,1-11.24-10.39l-4.5-55.38a9.42,9.42,0,0,1,9.54-10.39h90.08A11.53,11.53,0,0,1,606,624.94l4.51,55.39a9.47,9.47,0,0,1-8.52,10.33A8.88,8.88,0,0,1,600.91,690.71Z" transform="translate(57.46)"/><path class="cls-10" d="M600.91,691.14H510.83a11.94,11.94,0,0,1-11.67-10.79l-4.51-55.41a9.91,9.91,0,0,1,8.89-10.82,10.29,10.29,0,0,1,1.11,0h90.08a11.94,11.94,0,0,1,11.65,10.86l4.51,55.38A9.9,9.9,0,0,1,602,691.13a10.31,10.31,0,0,1-1.11,0Zm-96.28-76.2a9,9,0,0,0-9.17,8.83,11.46,11.46,0,0,0,.06,1.17l4.5,55.34a11.07,11.07,0,0,0,10.8,10H600.9a9,9,0,0,0,9.16-8.84,9.83,9.83,0,0,0,0-1.09l-4.49-55.41a11.06,11.06,0,0,0-10.81-10Z" transform="translate(57.46)"/><polygon class="cls-10" points="574.28 651.3 593.69 673.73 615.96 639.39 629.72 657.14 633.08 651.95 655.59 678.93 569.15 678.89 574.28 651.3"/><polygon class="cls-5" points="639.09 652.69 630.07 672.01 601.29 626.32 587.74 655.34 583.39 648.44 569.16 678.93 655.58 678.88 639.09 652.69"/></g><g id="Character" class="cls-1"><path class="cls-10" d="M766.9,525c2.41,4.52,4.48,9,6.43,13.64a128.17,128.17,0,0,1,5,14.39c.35,1.24.65,2.52.94,3.8a13.74,13.74,0,0,1,.4,2.71,15.46,15.46,0,0,1-.15,2.72,26.29,26.29,0,0,1-3,8.28A56.23,56.23,0,0,1,767.17,583a2.83,2.83,0,0,1-4.54-3.28l.07-.13a99.88,99.88,0,0,0,5.76-12.64,20.24,20.24,0,0,0,1.23-5.7,5,5,0,0,0-.08-1,1.38,1.38,0,0,0-.08-.29l-.19-.59c-.33-1.08-.67-2.16-1.07-3.24-1.52-4.34-3.39-8.7-5.34-13s-4-8.69-6.08-12.86v-.09A5.67,5.67,0,1,1,766.94,525Z" transform="translate(57.46)"/><path class="cls-12" d="M763.77,579.15,759,580.66l5.62,6.57a11,11,0,0,0,2.94-4.67,2.32,2.32,0,0,0-.9-2.49l-.8-.58A2.34,2.34,0,0,0,763.77,579.15Z" transform="translate(57.46)"/><polygon class="cls-12" points="809.88 584.71 815.9 589.48 822.08 587.23 816.46 580.65 809.88 584.71"/><path class="cls-11" d="M731.87,491.55c-.12.59-.53,1-.92.93s-.6-.62-.48-1.21.53-1,.92-.93S732,490.94,731.87,491.55Z" transform="translate(57.46)"/><path class="cls-13" d="M731.39,492.57a22,22,0,0,1-3.85,4.49,3.48,3.48,0,0,0,2.72,1.1Z" transform="translate(57.46)"/><path class="cls-11" d="M734.7,488.71a.37.37,0,0,0,.35-.37.32.32,0,0,0-.09-.23,3.49,3.49,0,0,0-3-1.17.36.36,0,0,0,0,.72l.12,0h0a2.8,2.8,0,0,1,2.37,1A.37.37,0,0,0,734.7,488.71Z" transform="translate(57.46)"/><path class="cls-12" d="M748.3,502.32c-1.07,5.48-1.72,13.06,2.11,16.72,0,0-1.5,5.55-11.67,5.55-11.19,0-5.38-4.87-5.38-4.87,4.65-1.45,4.61-6.74,3.54-11Z" transform="translate(57.46)"/><path class="cls-10" d="M731.39,518.86s1.64-3.86,3.3-4.53,12.28-2.41,14.72-.87,4.1,6.48,4.1,6.48Z" transform="translate(57.46)"/><path class="cls-10" d="M742.61,774.94c-1,0-1.89-.13-2.2-.57a.65.65,0,0,1,0-.77.86.86,0,0,1,.57-.41c1.24-.34,3.86,1.15,4,1.21a.18.18,0,0,1,.08.18.19.19,0,0,1-.14.15A14.92,14.92,0,0,1,742.61,774.94Zm-1.19-1.45a1,1,0,0,0-.34,0,.45.45,0,0,0-.35.25c-.12.22-.08.32,0,.39.35.48,2.24.49,3.63.3a7.89,7.89,0,0,0-2.94-1Z" transform="translate(57.46)"/><path class="cls-10" d="M744.87,774.71h-.07c-.91-.41-2.7-2-2.56-2.87,0-.2.17-.45.66-.5a1.26,1.26,0,0,1,1,.3c1,.79,1.16,2.8,1.17,2.89a.21.21,0,0,1-.08.16A.17.17,0,0,1,744.87,774.71Zm-1.83-3h-.1c-.32,0-.34.16-.35.2-.08.51,1.13,1.78,2.06,2.34a4.2,4.2,0,0,0-1-2.31.89.89,0,0,0-.63-.26Z" transform="translate(57.46)"/><polygon class="cls-12" points="810.56 774.53 803.08 774.53 802.33 757.2 809.81 757.2 810.56 774.53"/><path class="cls-11" d="M745.66,773.67h8.18a.66.66,0,0,1,.64.51l1.47,6.65a1.08,1.08,0,0,1-.8,1.3l-.27,0c-3,0-7.21-.22-10.92-.22-4.33,0-4.86.24-9.94.24-3.07,0-3.92-3.11-2.64-3.39,5.86-1.28,7.42-1.42,12.48-4.54A3.4,3.4,0,0,1,745.66,773.67Z" transform="translate(57.46)"/><path class="cls-11" d="M763.81,519.06c7,1.61,11.64,20.54,11.64,20.54l-11.71,8.8A22.36,22.36,0,0,1,755,535.48C752.64,526.1,756.64,517.42,763.81,519.06Z" transform="translate(57.46)"/><path class="cls-14" d="M757.8,532.23c3.81,3.77,6.27,9.72,6.57,15.69l-.62.48a22.32,22.32,0,0,1-8.7-12.92c-.14-.56-.27-1.12-.37-1.67Z" transform="translate(57.46)"/><rect class="cls-10" x="738.46" y="556.98" width="61.2" height="45.51" transform="translate(-102.75 326.74) rotate(-21.78)"/><rect class="cls-15" x="738.5" y="557.15" width="60.3" height="45.51" transform="translate(-102.84 326.6) rotate(-21.78)"/><g class="cls-16"><rect class="cls-10" x="737.7" y="571.11" width="5.71" height="4.05" transform="translate(-102.33 315.69) rotate(-21.78)"/><rect class="cls-10" x="746.46" y="567.61" width="5.71" height="4.05" transform="translate(-100.41 318.69) rotate(-21.78)"/><rect class="cls-10" x="755.21" y="564.12" width="5.71" height="4.05" transform="translate(-98.49 321.69) rotate(-21.78)"/><rect class="cls-10" x="763.96" y="560.62" width="5.71" height="4.05" transform="translate(-96.57 324.69) rotate(-21.78)"/><rect class="cls-10" x="772.71" y="557.12" width="5.71" height="4.05" transform="translate(-94.65 327.68) rotate(-21.78)"/><rect class="cls-10" x="781.47" y="553.63" width="5.71" height="4.05" transform="translate(-92.72 330.68) rotate(-21.78)"/><rect class="cls-10" x="740.19" y="577.32" width="5.71" height="4.05" transform="matrix(0.93, -0.37, 0.37, 0.93, -104.46, 317.06)"/><rect class="cls-10" x="748.94" y="573.83" width="5.71" height="4.05" transform="matrix(0.93, -0.37, 0.37, 0.93, -102.54, 320.05)"/><rect class="cls-10" x="757.68" y="570.32" width="5.71" height="4.05" transform="matrix(0.93, -0.37, 0.37, 0.93, -100.61, 323.05)"/><rect class="cls-10" x="766.45" y="566.82" width="5.71" height="4.05" transform="matrix(0.93, -0.37, 0.37, 0.93, -98.69, 326.05)"/><rect class="cls-10" x="775.2" y="563.33" width="5.71" height="4.05" transform="matrix(0.93, -0.37, 0.37, 0.93, -96.77, 329.05)"/><rect class="cls-10" x="783.95" y="559.83" width="5.71" height="4.05" transform="matrix(0.93, -0.37, 0.37, 0.93, -94.85, 332.05)"/><rect class="cls-10" x="742.66" y="583.52" width="5.71" height="4.05" transform="translate(-106.58 318.42) rotate(-21.78)"/><rect class="cls-10" x="751.41" y="580.02" width="5.71" height="4.05" transform="translate(-104.66 321.41) rotate(-21.78)"/><rect class="cls-10" x="760.17" y="576.53" width="5.71" height="4.05" transform="translate(-102.74 324.42) rotate(-21.78)"/><rect class="cls-10" x="768.93" y="573.03" width="5.71" height="4.05" transform="translate(-100.82 327.41) rotate(-21.78)"/><rect class="cls-10" x="777.67" y="569.54" width="5.71" height="4.05" transform="translate(-98.9 330.41) rotate(-21.78)"/><rect class="cls-10" x="786.43" y="566.04" width="5.71" height="4.05" transform="translate(-96.97 333.41) rotate(-21.78)"/><rect class="cls-10" x="745.15" y="589.73" width="5.71" height="4.05" transform="matrix(0.93, -0.37, 0.37, 0.93, -108.71, 319.78)"/><rect class="cls-10" x="753.9" y="586.23" width="5.71" height="4.05" transform="matrix(0.93, -0.37, 0.37, 0.93, -106.79, 322.78)"/><rect class="cls-10" x="762.64" y="582.73" width="5.71" height="4.05" transform="matrix(0.93, -0.37, 0.37, 0.93, -104.87, 325.78)"/><rect class="cls-10" x="771.41" y="579.23" width="5.71" height="4.05" transform="matrix(0.93, -0.37, 0.37, 0.93, -102.94, 328.78)"/><rect class="cls-10" x="780.16" y="575.73" width="5.71" height="4.05" transform="matrix(0.93, -0.37, 0.37, 0.93, -101.02, 331.77)"/><rect class="cls-10" x="788.91" y="572.25" width="5.71" height="4.05" transform="translate(-99.1 334.77) rotate(-21.78)"/><rect class="cls-10" x="747.62" y="595.92" width="5.71" height="4.05" transform="translate(-110.83 321.14) rotate(-21.78)"/><rect class="cls-10" x="756.37" y="592.44" width="5.71" height="4.05" transform="translate(-108.91 324.14) rotate(-21.78)"/><rect class="cls-10" x="765.13" y="588.93" width="5.71" height="4.05" transform="translate(-106.99 327.14) rotate(-21.78)"/><rect class="cls-10" x="773.88" y="585.45" width="5.71" height="4.05" transform="translate(-105.07 330.14) rotate(-21.78)"/><rect class="cls-10" x="782.63" y="581.95" width="5.71" height="4.05" transform="translate(-103.15 333.14) rotate(-21.78)"/><rect class="cls-10" x="791.39" y="578.44" width="5.71" height="4.05" transform="translate(-101.22 336.14) rotate(-21.78)"/><rect class="cls-10" x="750.11" y="602.14" width="5.71" height="4.05" transform="matrix(0.93, -0.37, 0.37, 0.93, -112.96, 322.51)"/><rect class="cls-10" x="758.86" y="598.64" width="5.71" height="4.05" transform="matrix(0.93, -0.37, 0.37, 0.93, -111.04, 325.51)"/><rect class="cls-10" x="767.6" y="595.15" width="5.71" height="4.05" transform="matrix(0.93, -0.37, 0.37, 0.93, -109.12, 328.5)"/><rect class="cls-10" x="776.35" y="591.65" width="5.71" height="4.05" transform="matrix(0.93, -0.37, 0.37, 0.93, -107.2, 331.5)"/><rect class="cls-10" x="785.12" y="588.14" width="5.71" height="4.05" transform="matrix(0.93, -0.37, 0.37, 0.93, -105.27, 334.5)"/><rect class="cls-10" x="793.86" y="584.64" width="5.71" height="4.05" transform="matrix(0.93, -0.37, 0.37, 0.93, -103.35, 337.5)"/></g><path class="cls-9" d="M784.33,560.64a1.61,1.61,0,1,1,0,.12A.61.61,0,0,1,784.33,560.64Z" transform="translate(57.46)"/><path class="cls-9" d="M783,582.75a1.58,1.58,0,1,1,2.06.89,1.58,1.58,0,0,1-2.06-.89Z" transform="translate(57.46)"/><path class="cls-9" d="M763,583.54a1.59,1.59,0,1,1,2.06.89h0a1.59,1.59,0,0,1-2.06-.88Z" transform="translate(57.46)"/><path class="cls-9" d="M750.48,602.94a1.59,1.59,0,1,1,2.07.87h0A1.59,1.59,0,0,1,750.48,602.94Z" transform="translate(57.46)"/><path class="cls-9" d="M752,602.94a.58.58,0,0,1-.32-.1.58.58,0,0,1-.19-.8h0L764,582.64a.59.59,0,0,1,.47-.27l19.45-.77L785.23,560a.59.59,0,0,1,.68-.48.6.6,0,0,1,.49.55l-1.31,22.11a.59.59,0,0,1-.57.55l-19.68.78-12.38,19.15A.61.61,0,0,1,752,602.94Z" transform="translate(57.46)"/><path class="cls-11" d="M719.48,526.57c-1.53,8.08-2.49,24.69,2,57.57h40c-.72-5.7-3.59-36.12,2.34-65.08a104.19,104.19,0,0,0-13.4-1.69,146.08,146.08,0,0,0-17,0c-1.88.17-3.72.44-5.36.73A10.6,10.6,0,0,0,719.48,526.57Z" transform="translate(57.46)"/><path class="cls-14" d="M725.78,539l-7.52.6c-.27,9.73.4,23.93,3.18,44.52h.36C726.31,569.31,732.29,548.11,725.78,539Z" transform="translate(57.46)"/><polygon class="cls-14" points="802.33 757.2 802.71 766.14 810.2 766.14 809.82 757.2 802.33 757.2"/><path class="cls-12" d="M751.86,494.31c-1.92,7.18-2.69,11.47-7.11,14.46-6.66,4.48-15-.67-15.22-8.27-.23-6.85,3-17.43,10.65-18.88a10.14,10.14,0,0,1,11.68,12.69Z" transform="translate(57.46)"/><path class="cls-11" d="M735,494.36l-3.89,1,3.62-9.39a10.55,10.55,0,0,1-.33-7.24,2.1,2.1,0,0,1,2-1.46c8.06-.15,16.49,4.37,20.73,7.79a2.09,2.09,0,0,1,.47,2.72A23.77,23.77,0,0,1,754,492c-.08,2.63-4.37,14.5-6.74,15.84s-6.92.79-8.13-1.38S733.83,501.44,735,494.36Z" transform="translate(57.46)"/><path class="cls-12" d="M738.66,494.51a8.41,8.41,0,0,1-2.9,4.54c-1.91,1.5-3.4.12-3.32-2.09.07-2,1.15-5.16,3.28-5.81S739.16,492.34,738.66,494.51Z" transform="translate(57.46)"/><path class="cls-10" d="M807.1,772.34c0-1,.12-1.89.55-2.21a.66.66,0,0,1,.78,0,.91.91,0,0,1,.41.56c.35,1.24-1.12,3.87-1.19,4a.17.17,0,0,1-.18.09.17.17,0,0,1-.14-.14A13.69,13.69,0,0,1,807.1,772.34Zm1.45-1.2a1,1,0,0,0,0-.34.51.51,0,0,0-.25-.35c-.22-.12-.33-.08-.39,0-.48.35-.48,2.24-.27,3.63a8.06,8.06,0,0,0,.91-2.94Z" transform="translate(57.46)"/><path class="cls-10" d="M807.32,774.59v-.07c.4-.9,2-2.7,2.85-2.57.2,0,.45.17.5.65a1.26,1.26,0,0,1-.3,1c-.77,1-2.79,1.17-2.87,1.18a.16.16,0,0,1-.16-.07A.17.17,0,0,1,807.32,774.59Zm3-1.84v-.11c0-.32-.16-.34-.2-.34-.51-.08-1.77,1.14-2.32,2.07a4.2,4.2,0,0,0,2.3-1,1,1,0,0,0,.25-.62Z" transform="translate(57.46)"/><polygon class="cls-12" points="864.9 774.64 857.59 775.16 853.49 757.69 860.79 757.17 864.9 774.64"/><path class="cls-11" d="M807.41,772.94l-8.14-.72a.63.63,0,0,0-.68.45l-2.06,6.5a1.09,1.09,0,0,0,.71,1.37,1.35,1.35,0,0,0,.29.05c2.94.21,7.2.41,10.89.74,4.31.38,1.52.37,6.58.82,3.06.27,4.19-2.75,2.93-3.14-5.72-1.8-6.76-3-8.73-5.33A2.52,2.52,0,0,0,807.41,772.94Z" transform="translate(57.46)"/><polygon class="cls-14" points="853.49 757.69 855.61 766.7 862.91 766.18 860.8 757.17 853.49 757.69"/><path class="cls-10" d="M735.64,584.14s17.21,57.5,23.75,78.84c7.15,23.37,34.37,100.9,34.37,100.9L807,761s-18.65-66.61-26.38-99.21c-5.94-25-19.11-77.63-19.11-77.63Z" transform="translate(57.46)"/><path class="cls-11" d="M791.44,759.8c-.06,0,1.3,5.15,1.3,5.15l15.87-1.7-.07-4.72Z" transform="translate(57.46)"/><path class="cls-17" d="M745.17,610.79c9.53,1.25,13.32,34.46,14.75,53.94-.18-.62-.37-1.2-.54-1.76-3.56-11.65-10.31-34.1-15.71-52.07A3.18,3.18,0,0,1,745.17,610.79Z" transform="translate(57.46)"/><path class="cls-10" d="M721.44,584.14s5.77,56,8.26,78.79C732.28,686.64,742,764.41,742,764.41H754.7s-1.54-76.35-2.05-99.67c-.56-25.42-4.88-80.6-4.88-80.6Z" transform="translate(57.46)"/><path class="cls-11" d="M740,759.36c-.06,0,.71,5.26.71,5.26h15.42l.42-4.69Z" transform="translate(57.46)"/><path class="cls-11" d="M667.29,636.82a22.44,22.44,0,1,0,7-31h0a22.42,22.42,0,0,0-7,30.93Zm35-22a18.89,18.89,0,1,1-26.06-5.9,18.89,18.89,0,0,1,26.06,5.9Z" transform="translate(57.46)"/><path class="cls-18" d="M703.15,628.68a17.31,17.31,0,1,1-13.06-20.74,17.31,17.31,0,0,1,13.06,20.74Z" transform="translate(57.46)"/><path class="cls-11" d="M705.86,610.17l2.11,3.34a1.08,1.08,0,0,1-.34,1.49h0a1.09,1.09,0,0,1-1.5-.34l-2.1-3.33a1.09,1.09,0,0,1,.34-1.5h0a1.07,1.07,0,0,1,1.48.32Z" transform="translate(57.46)"/><path class="cls-11" d="M719.47,600.68q-3.65,2.49-7.22,5.09c-2.39,1.74-4.75,3.51-7,5.39a1.49,1.49,0,0,0-.16,2.11,1.51,1.51,0,0,0,1.74.4c2.68-1.26,5.3-2.63,7.9-4s5.16-2.85,7.7-4.32q3.26-1.89,6.46-3.86a1.3,1.3,0,0,0,.42-1.79h0l-1.78-2.76a1.3,1.3,0,0,0-1.79-.41h0C723.63,597.94,721.54,599.27,719.47,600.68Z" transform="translate(57.46)"/><path class="cls-10" d="M730.62,529.37q-1.83,9-3.9,18l-4.14,17.86c-1.35,5.82-2.5,11.72-3.55,17.71l-3.14,18h0a2.82,2.82,0,0,1-5.6-.39c-.22-6.25-.12-12.43.23-18.65a180.08,180.08,0,0,1,2-18.68c1-6.12,2.07-12.17,3.25-18.21s2.43-12.06,3.82-18a5.67,5.67,0,0,1,11.08,2.41Z" transform="translate(57.46)"/><path class="cls-12" d="M715,599.27a2.07,2.07,0,0,0-2-.59l-1.62.39a2,2,0,0,0-1.57,1.74l-.47,3.61a4.52,4.52,0,0,0,.62,3l2.24,3.7a2.52,2.52,0,0,0,2.52.94l2.33-.49a2.52,2.52,0,0,0,1.94-3c0-.09,0-.17-.07-.25l-.61-1.88A11.6,11.6,0,0,0,715,599.27Z" transform="translate(57.46)"/><path class="cls-11" d="M738.41,525.94c3.64,9.65-8.94,23.42-8.94,23.42l-15.93-5.27s1.22-13.17,6.75-20.6C727.11,514.28,735.64,518.55,738.41,525.94Z" transform="translate(57.46)"/></g></g><g id="Character_1" data-name="Character 1"><g class="cls-1"><rect class="cls-19" x="416.78" y="343.54" width="33.12" height="0.25"/><rect class="cls-19" x="322.53" y="346.26" width="8.69" height="0.25"/><rect class="cls-19" x="396.59" y="334.26" width="19.19" height="0.25"/><rect class="cls-19" x="52.46" y="335.94" width="43.19" height="0.25"/><rect class="cls-19" x="104.56" y="335.94" width="6.33" height="0.25"/><rect class="cls-19" x="131.47" y="340.16" width="93.68" height="0.25"/><path class="cls-2" d="M179.55,282.85H-13.54a5.71,5.71,0,0,1-5.71-5.71V5.71A5.71,5.71,0,0,1-13.54,0H179.55a5.71,5.71,0,0,1,5.71,5.71V277.14A5.71,5.71,0,0,1,179.55,282.85ZM-13.54.25A5.47,5.47,0,0,0-19,5.71V277.14a5.47,5.47,0,0,0,5.46,5.46H179.55a5.47,5.47,0,0,0,5.46-5.46V5.71A5.47,5.47,0,0,0,179.55.25Z" transform="translate(57.46)"/><path class="cls-2" d="M395.85,282.85H202.75a5.71,5.71,0,0,1-5.7-5.71V5.71A5.71,5.71,0,0,1,202.75,0h193.1a5.71,5.71,0,0,1,5.71,5.71V277.14A5.71,5.71,0,0,1,395.85,282.85ZM202.75.25a5.46,5.46,0,0,0-5.45,5.46V277.14a5.46,5.46,0,0,0,5.45,5.46h193.1a5.47,5.47,0,0,0,5.46-5.46V5.71A5.47,5.47,0,0,0,395.85.25Z" transform="translate(57.46)"/><rect class="cls-2" y="327.45" width="500" height="0.25"/></g><g class="cls-1"><rect class="cls-19" x="82.06" y="238.5" width="108.58" height="40.75"/><rect class="cls-19" x="82.06" y="279.25" width="108.58" height="40.75"/><polygon class="cls-20" points="123.32 279.25 136.83 238.5 116.04 238.5 102.53 279.25 123.32 279.25"/><polygon class="cls-20" points="146.9 238.5 142.33 238.5 128.82 279.25 133.39 279.25 146.9 238.5"/><polygon class="cls-20" points="109.81 320 123.32 279.25 102.53 279.25 89.02 320 109.81 320"/><polygon class="cls-20" points="133.39 279.25 128.82 279.25 115.31 320 119.88 320 133.39 279.25"/><rect class="cls-21" x="76.83" y="188.42" width="4.12" height="108.58" transform="translate(379.06 163.82) rotate(90)"/><rect class="cls-21" x="76.83" y="228.85" width="4.12" height="108.58" transform="translate(419.5 204.25) rotate(90)"/><path class="cls-21" d="M81.67,264.1a1.78,1.78,0,0,0,0-3.55H76.12a1.78,1.78,0,0,0,0,3.55Z" transform="translate(57.46)"/><path class="cls-22" d="M81.67,263.47a1.78,1.78,0,0,0,0-3.54H76.12a1.78,1.78,0,0,0,0,3.54Z" transform="translate(57.46)"/><path class="cls-21" d="M81.67,301.71a1.78,1.78,0,0,0,0-3.54H76.12a1.78,1.78,0,0,0,0,3.54Z" transform="translate(57.46)"/><path class="cls-22" d="M81.67,301.09a1.78,1.78,0,0,0,0-3.54H76.12a1.78,1.78,0,0,0,0,3.54Z" transform="translate(57.46)"/><path class="cls-22" d="M22.71,236.68v85.11H135.08V236.68Zm108.58,81H26.5V281.41H131.29Zm0-40.37H26.5V241H131.29Z" transform="translate(57.46)"/><rect class="cls-19" x="194.44" y="238.5" width="108.58" height="40.75"/><rect class="cls-19" x="194.44" y="279.25" width="108.58" height="40.75"/><polygon class="cls-20" points="278.62 279.25 292.13 238.5 271.34 238.5 257.83 279.25 278.62 279.25"/><polygon class="cls-20" points="302.19 238.5 297.63 238.5 284.12 279.25 288.69 279.25 302.19 238.5"/><polygon class="cls-20" points="265.11 320 278.62 279.25 257.83 279.25 244.32 320 265.11 320"/><polygon class="cls-20" points="288.69 279.25 284.12 279.25 270.61 320 275.18 320 288.69 279.25"/><rect class="cls-21" x="189.21" y="188.42" width="4.12" height="108.58" transform="translate(491.44 51.44) rotate(90)"/><rect class="cls-21" x="189.21" y="228.85" width="4.12" height="108.58" transform="translate(531.87 91.88) rotate(90)"/><path class="cls-21" d="M194,264.1a1.78,1.78,0,0,0,0-3.55h-5.55a1.78,1.78,0,0,0,0,3.55Z" transform="translate(57.46)"/><path class="cls-22" d="M194,263.47a1.78,1.78,0,0,0,0-3.54h-5.55a1.78,1.78,0,0,0,0,3.54Z" transform="translate(57.46)"/><path class="cls-21" d="M194,301.71a1.78,1.78,0,0,0,0-3.54h-5.55a1.78,1.78,0,0,0,0,3.54Z" transform="translate(57.46)"/><path class="cls-22" d="M194,301.09a1.78,1.78,0,0,0,0-3.54h-5.55a1.78,1.78,0,0,0,0,3.54Z" transform="translate(57.46)"/><path class="cls-22" d="M135.08,236.68v85.11H247.45V236.68Zm108.58,81H138.87V281.41H243.66Zm0-40.37H138.87V241H243.66Z" transform="translate(57.46)"/><rect class="cls-19" x="306.81" y="238.5" width="108.58" height="40.75"/><rect class="cls-19" x="306.81" y="279.25" width="108.58" height="40.75"/><polygon class="cls-20" points="375.57 279.25 389.08 238.5 368.29 238.5 354.78 279.25 375.57 279.25"/><polygon class="cls-20" points="399.14 238.5 394.57 238.5 381.06 279.25 385.63 279.25 399.14 238.5"/><polygon class="cls-20" points="362.06 320 375.57 279.25 354.78 279.25 341.27 320 362.06 320"/><polygon class="cls-20" points="385.63 279.25 381.06 279.25 367.55 320 372.12 320 385.63 279.25"/><rect class="cls-21" x="301.58" y="188.42" width="4.12" height="108.58" transform="translate(603.81 -60.93) rotate(90)"/><rect class="cls-21" x="301.58" y="228.85" width="4.12" height="108.58" transform="translate(644.24 -20.5) rotate(90)"/><path class="cls-21" d="M306.42,264.1a1.78,1.78,0,0,0,0-3.55h-5.56a1.78,1.78,0,0,0,0,3.55Z" transform="translate(57.46)"/><path class="cls-22" d="M306.42,263.47a1.78,1.78,0,0,0,0-3.54h-5.56a1.78,1.78,0,0,0,0,3.54Z" transform="translate(57.46)"/><path class="cls-21" d="M306.42,301.71a1.78,1.78,0,0,0,0-3.54h-5.56a1.78,1.78,0,0,0,0,3.54Z" transform="translate(57.46)"/><path class="cls-22" d="M306.42,301.09a1.78,1.78,0,0,0,0-3.54h-5.56a1.78,1.78,0,0,0,0,3.54Z" transform="translate(57.46)"/><path class="cls-22" d="M247.45,236.68v85.11H359.83V236.68Zm108.59,81H251.25V281.41H356Zm0-40.37H251.25V241H356Z" transform="translate(57.46)"/><polygon class="cls-21" points="406.42 327.92 91.03 327.92 89.39 321.79 408.06 321.79 406.42 327.92"/></g><g class="cls-1"><rect class="cls-21" x="279.35" y="142.67" width="70.7" height="81.95" transform="translate(186.87 497.38) rotate(-89.7)"/><rect class="cls-23" x="273.95" y="135.07" width="81.95" height="13.23" transform="translate(686.56 285.02) rotate(-179.7)"/><polygon class="cls-22" points="328.62 216.79 410.56 217.22 413.32 148.51 331.38 148.08 328.62 216.79"/><polygon class="cls-19" points="349.6 165.06 390.16 165.27 390.65 153.18 350.08 152.97 349.6 165.06"/><polygon class="cls-21" points="396.37 180.93 407.2 180.98 407.63 170.15 396.8 170.09 396.37 180.93"/><polygon class="cls-21" points="381 180.85 391.83 180.9 392.27 170.07 381.43 170.01 381 180.85"/><polygon class="cls-21" points="395.78 195.54 406.61 195.6 407.05 184.76 396.21 184.71 395.78 195.54"/><polygon class="cls-19" points="395.19 210.15 406.03 210.21 406.46 199.37 395.63 199.32 395.19 210.15"/><polygon class="cls-21" points="380.41 195.46 391.24 195.51 391.68 184.68 380.84 184.63 380.41 195.46"/><polygon class="cls-21" points="365.04 195.38 375.87 195.43 376.31 184.6 365.47 184.54 365.04 195.38"/><polygon class="cls-21" points="349.67 195.3 360.5 195.35 360.94 184.52 350.11 184.46 349.67 195.3"/><polygon class="cls-21" points="334.3 195.22 345.13 195.27 345.57 184.44 334.74 184.38 334.3 195.22"/><polygon class="cls-19" points="379.82 210.07 390.66 210.13 391.09 199.29 380.26 199.24 379.82 210.07"/><polygon class="cls-19" points="364.45 209.99 375.29 210.05 375.72 199.21 364.89 199.16 364.45 209.99"/><polygon class="cls-21" points="349.08 209.91 359.92 209.97 360.35 199.13 349.52 199.08 349.08 209.91"/><polygon class="cls-2" points="365.63 180.77 376.46 180.82 376.9 169.99 366.06 169.93 365.63 180.77"/><polygon class="cls-19" points="365.63 180.77 376.46 180.82 376.9 169.99 366.06 169.93 365.63 180.77"/><polygon class="cls-2" points="350.26 180.69 361.09 180.74 361.53 169.91 350.69 169.85 350.26 180.69"/><polygon class="cls-19" points="350.26 180.69 361.09 180.74 361.53 169.91 350.69 169.85 350.26 180.69"/><polygon class="cls-2" points="334.89 180.6 345.72 180.66 346.16 169.83 335.32 169.77 334.89 180.6"/><polygon class="cls-19" points="334.89 180.6 345.72 180.66 346.16 169.83 335.32 169.77 334.89 180.6"/><polygon class="cls-21" points="333.71 209.83 344.55 209.88 344.98 199.05 334.15 199 333.71 209.83"/><path class="cls-23" d="M314.7,131.46a4.74,4.74,0,1,0,4.74,4.74A4.74,4.74,0,0,0,314.7,131.46Zm0,8.33a3.6,3.6,0,1,1,3.6-3.59A3.59,3.59,0,0,1,314.7,139.79Z" transform="translate(57.46)"/></g><ellipse id="_Path_2" data-name="&lt;Path&gt;" class="cls-24" cx="250" cy="357.44" rx="193.89" ry="11.32"/><g class="cls-1"><path class="cls-25" d="M341.5,91.3,320.91,87l19-7.06.26-4.94c-4.67-7-14.5-11.74-26.11-11.74-16.65,0-30.67,9.79-31.3,21.86,0,.35,0,.7,0,1s-.22,3.56-.24,3.91c-.63,12.07,12.36,21.86,29,21.86,13.67,0,25.56-6.6,29.73-15.64Z" transform="translate(57.46)"/><path class="cls-26" d="M312,85.08,340.17,75c-4.67-7-14.5-11.74-26.11-11.74-16.65,0-30.67,9.79-31.3,21.86s12.36,21.86,29,21.86c13.67,0,25.56-6.6,29.73-15.64Z" transform="translate(57.46)"/><path class="cls-25" d="M330.23,87.27l28.59,6.22a16.84,16.84,0,0,0,1.57-6.22,15.39,15.39,0,0,0,0-1.8,16.71,16.71,0,0,0,.21-1.87,16.42,16.42,0,0,0-2.9-10.12L330.43,83.6Z" transform="translate(57.46)"/><path class="cls-27" d="M359,89.82a16.84,16.84,0,0,0,1.57-6.22,16.42,16.42,0,0,0-2.9-10.12L330.43,83.6Z" transform="translate(57.46)"/></g><g class="cls-1"><path class="cls-25" d="M228.78,174.22v-1.46H217.55V161.44h-1.46v11.32H205.32V161.44h-1.46v11.32H193.27V161.44h-1.46v11.32h-10.5V161.44h-1.46v11.32H169.08V161.44h-1.46v11.32H156.48v1.46h11.14v10.59H156.48v1.46h11.14v10.59H156.48v1.46h11.14v11.32h1.46V198.32h10.77v11.32h1.46V198.32h10.5v11.32h1.46V198.32h10.59v11.32h1.46V198.32h10.77v11.32h1.46V198.32h11.23v-1.46H217.55V186.27h11.23v-1.46H217.55V174.22Zm-24.92,0v10.59H193.27V174.22Zm-12.05,0v10.59h-10.5V174.22Zm-22.73,0h10.77v10.59H169.08Zm0,22.64V186.27h10.77v10.59Zm12.23,0V186.27h10.5v10.59Zm12,0V186.27h10.59v10.59Zm22.82,0H205.32V186.27h10.77Zm0-12.05H205.32V174.22h10.77Z" transform="translate(57.46)"/><path class="cls-26" d="M228.78,174.22v-1.46H217.55V161.44h-1.46v11.32H205.32V161.44h-1.46v11.32H193.27V161.44h-1.46v11.32h-10.5V161.44h-1.46v11.32H169.08V161.44h-1.46v11.32H156.48v1.46h11.14v10.59H156.48v1.46h11.14v10.59H156.48v1.46h11.14v11.32h1.46V198.32h10.77v11.32h1.46V198.32h10.5v11.32h1.46V198.32h10.59v11.32h1.46V198.32h10.77v11.32h1.46V198.32h11.23v-1.46H217.55V186.27h11.23v-1.46H217.55V174.22Zm-24.92,0v10.59H193.27V174.22Zm-12.05,0v10.59h-10.5V174.22Zm-22.73,0h10.77v10.59H169.08Zm0,22.64V186.27h10.77v10.59Zm12.23,0V186.27h10.5v10.59Zm12,0V186.27h10.59v10.59Zm22.82,0H205.32V186.27h10.77Zm0-12.05H205.32V174.22h10.77Z" transform="translate(57.46)"/><path class="cls-25" d="M225.11,211.1H160a5.15,5.15,0,0,1-5.13-5.14V165.12A5.15,5.15,0,0,1,160,160h65.14a5.14,5.14,0,0,1,5.13,5.14V206A5.14,5.14,0,0,1,225.11,211.1ZM160,162.9a2.21,2.21,0,0,0-2.21,2.22V206a2.21,2.21,0,0,0,2.21,2.22h65.14a2.21,2.21,0,0,0,2.21-2.22V165.12a2.21,2.21,0,0,0-2.21-2.22Z" transform="translate(57.46)"/><g class="cls-28"><path class="cls-9" d="M225.11,211.1H160a5.15,5.15,0,0,1-5.13-5.14V165.12A5.15,5.15,0,0,1,160,160h65.14a5.14,5.14,0,0,1,5.13,5.14V206A5.14,5.14,0,0,1,225.11,211.1ZM160,162.9a2.21,2.21,0,0,0-2.21,2.22V206a2.21,2.21,0,0,0,2.21,2.22h65.14a2.21,2.21,0,0,0,2.21-2.22V165.12a2.21,2.21,0,0,0-2.21-2.22Z" transform="translate(57.46)"/></g><polygon class="cls-25" points="275.14 171.06 268.62 171.06 262.1 177.59 249.83 183.72 236.99 183.72 224.34 196.37 215.22 196.37 215.22 198.56 225.24 198.56 237.89 185.9 250.35 185.9 263.39 179.38 269.52 173.25 275.65 173.25 284.78 168.69 284.78 166.24 275.14 171.06"/><g class="cls-29"><polygon class="cls-9" points="275.14 171.06 268.62 171.06 262.1 177.59 249.83 183.72 236.99 183.72 224.34 196.37 215.22 196.37 215.22 198.56 225.24 198.56 237.89 185.9 250.35 185.9 263.39 179.38 269.52 173.25 275.65 173.25 284.78 168.69 284.78 166.24 275.14 171.06"/></g><polygon class="cls-25" points="274.75 183.91 249.83 196.37 237.18 196.37 224.53 202.69 215.22 202.69 215.22 204.88 225.05 204.88 237.7 198.56 250.35 198.56 276.04 185.71 284.78 176.97 284.78 173.88 274.75 183.91"/><polygon class="cls-25" points="275.14 177.39 262.49 183.72 249.83 183.72 237.18 190.04 215.22 190.04 215.22 192.23 237.7 192.23 250.35 185.9 263 185.9 275.65 179.58 284.78 179.58 284.78 177.39 275.14 177.39"/><g class="cls-30"><polygon class="cls-9" points="275.14 177.39 262.49 183.72 249.83 183.72 237.18 190.04 215.22 190.04 215.22 192.23 237.7 192.23 250.35 185.9 263 185.9 275.65 179.58 284.78 179.58 284.78 177.39 275.14 177.39"/></g></g><g class="cls-1"><polygon class="cls-25" points="220.52 83.7 212.46 83.7 212.37 105.55 220.42 105.55 220.52 83.7"/><polygon class="cls-31" points="220.52 83.7 212.46 83.7 212.37 105.55 220.42 105.55 220.52 83.7"/><rect class="cls-25" x="279.48" y="45.96" width="8.05" height="59.59"/><g class="cls-32"><rect class="cls-9" x="279.48" y="45.96" width="8.05" height="59.59"/></g><polygon class="cls-25" points="234.23 83.21 226.18 83.21 225.79 105.55 233.84 105.55 234.23 83.21"/><polygon class="cls-26" points="234.23 83.21 226.18 83.21 225.79 105.55 233.84 105.55 234.23 83.21"/><polygon class="cls-25" points="274.16 58.99 266.11 58.99 266.06 105.55 274.11 105.55 274.16 58.99"/><polygon class="cls-27" points="274.16 58.99 266.11 58.99 266.06 105.55 274.11 105.55 274.16 58.99"/><polygon class="cls-25" points="260.45 60.94 252.4 60.94 252.64 105.55 260.69 105.55 260.45 60.94"/><polygon class="cls-33" points="260.45 60.94 252.4 60.94 252.64 105.55 260.69 105.55 260.45 60.94"/><polygon class="cls-25" points="246.81 61.86 238.75 61.86 239.21 105.55 247.27 105.55 246.81 61.86"/><g class="cls-30"><polygon class="cls-9" points="246.81 61.86 238.75 61.86 239.21 105.55 247.27 105.55 246.81 61.86"/></g><g class="cls-32"><polygon points="212.54 85.26 226.36 98.74 240.13 71.19 250.46 60.87 262.85 73.27 285.43 50.69 287.63 52.9 287.63 44.92 279.65 44.92 281.86 47.13 262.85 66.14 250.46 53.74 235.99 68.21 224.98 90.23 212.56 78.28 212.54 85.26"/></g><polygon class="cls-34" points="212.6 82.77 225.9 95.6 239.67 68.05 249.99 57.73 262.38 70.13 279.12 53.39 281.33 55.59 287.17 41.78 273.35 47.61 275.56 49.82 262.38 62.99 249.99 50.6 235.53 65.07 224.51 87.09 212.62 75.79 212.6 82.77"/></g><g class="cls-1"><path class="cls-25" d="M48.53,113.87v6a18.08,18.08,0,0,1,10.25,4.25l4.27-4.27A24.06,24.06,0,0,0,48.53,113.87Z" transform="translate(57.46)"/><path class="cls-27" d="M48.53,113.87v6a18.08,18.08,0,0,1,10.25,4.25l4.27-4.27A24.06,24.06,0,0,0,48.53,113.87Z" transform="translate(57.46)"/><path class="cls-25" d="M45.61,155.93a18.07,18.07,0,0,1-16.55-16.55H23A24.11,24.11,0,0,0,45.61,162Z" transform="translate(57.46)"/><path class="cls-26" d="M45.61,155.93a18.07,18.07,0,0,1-16.55-16.55H23A24.11,24.11,0,0,0,45.61,162Z" transform="translate(57.46)"/><path class="cls-25" d="M29.06,136.47a18.09,18.09,0,0,1,16.55-16.56v-6A24.11,24.11,0,0,0,23,136.47Z" transform="translate(57.46)"/><path class="cls-35" d="M29.06,136.47a18.09,18.09,0,0,1,16.55-16.56v-6A24.11,24.11,0,0,0,23,136.47Z" transform="translate(57.46)"/><path class="cls-25" d="M65.11,122l-4.27,4.27a18.06,18.06,0,0,1-12.31,29.71v6a24.1,24.1,0,0,0,16.58-40Z" transform="translate(57.46)"/></g><g class="cls-1"><path class="cls-34" d="M206.93,317.09h-4c0-2.23-1.28-3.79-2.43-3.79H184.41c-1.15,0-2.43,1.56-2.43,3.79h-4c0-4.3,2.88-7.79,6.43-7.79H200.5C204,309.3,206.93,312.79,206.93,317.09Z" transform="translate(57.46)"/><path class="cls-34" d="M158.94,315.83h67.25a3.24,3.24,0,0,1,3.24,3.24v37.31a5.59,5.59,0,0,1-5.59,5.59H161.28a5.59,5.59,0,0,1-5.59-5.59V319.07a3.24,3.24,0,0,1,3.24-3.24Z" transform="translate(55.91 0.89) rotate(-0.26)"/><path class="cls-36" d="M229.51,356.21a5.59,5.59,0,0,1-5.56,5.62l-55.52.28a5.58,5.58,0,0,1-5.61-5.56l-.13-29.2h1.92A11.11,11.11,0,0,1,163,323.6a24.47,24.47,0,0,0-2-5.91l-.44-.84a3.22,3.22,0,0,1,2.18-.86l63.4-.31a3.25,3.25,0,0,1,3.26,3.23Z" transform="translate(57.46)"/><polygon class="cls-34" points="255.85 361.7 254.2 361.69 254.47 330.23 256.12 330.24 255.85 361.7"/><path class="cls-35" d="M225.55,315.59l-66.27.31a3.54,3.54,0,0,0-3.71,3.35v5.05c0,5.19,4.75,9.37,10.56,9.35l52.71-.25c5.8,0,10.49-4.25,10.47-9.44v-5A3.55,3.55,0,0,0,225.55,315.59Z" transform="translate(57.46)"/><path class="cls-34" d="M226,315.68l-59.9.27-6,0,.89,1.7a24.55,24.55,0,0,1,2,5.92c1.05,4.58,4.81,8,9.27,7.94l47.64-.22c5.25,0,9.49-4.75,9.46-10.55V319.4A3.56,3.56,0,0,0,226,315.68Z" transform="translate(57.46)"/><path class="cls-27" d="M226,315.68l-59.9.27-6,0,.89,1.7a24.55,24.55,0,0,1,2,5.92c1.05,4.58,4.81,8,9.27,7.94l47.64-.22c5.25,0,9.49-4.75,9.46-10.55V319.4A3.56,3.56,0,0,0,226,315.68Z" transform="translate(57.46)"/><rect class="cls-9" x="177.99" y="325.89" width="7.05" height="11.38" rx="1.95" transform="translate(55.95 0.83) rotate(-0.26)"/><rect class="cls-9" x="209.22" y="325.86" width="7.05" height="11.38" rx="1.95" transform="translate(55.95 0.97) rotate(-0.26)"/><path class="cls-35" d="M164.61,327.35h-9l0-.63v-1.41l0-6.07a3.21,3.21,0,0,1,.37-1.51,3.48,3.48,0,0,1,.22-.36,3.73,3.73,0,0,1,1.87-1.28,2.73,2.73,0,0,1,.76-.1h1.22l.45.87.44.84a24.47,24.47,0,0,1,2,5.91A11.11,11.11,0,0,0,164.61,327.35Z" transform="translate(57.46)"/></g><g class="cls-1"><path class="cls-37" d="M247.77,218.91l-4,67.87,1.14,55.11,6.77.71a230.66,230.66,0,0,0,6.37-39.45c.27-4.56-.81-9.87-.31-13.47.44-3.15,1.7-5.13,3.46-12.27,2.12-8.64,4.34-20.23,3.78-29.24,0,0,9.25-9.67,6.89-22.84Z" transform="translate(57.46)"/><polygon class="cls-37" points="301.89 352.54 307 352.32 308.92 344.16 310.3 336.6 302.77 335.23 302.3 344.39 301.89 352.54"/><path class="cls-34" d="M236.76,362.32a8.45,8.45,0,0,1,2.75-1.37h0s3-2.78,4.76-11.45l3.87-.84a3.28,3.28,0,0,1,3.43,1.49,2,2,0,0,1,.22.52,21.93,21.93,0,0,1,.29,2.81,78.51,78.51,0,0,1-.32,9.58h-.69l0-6c0-2-1.69.29-2.22,2.47s-1.58,4.49-6.07,4.42C237.55,363.83,235.38,363.54,236.76,362.32Z" transform="translate(57.46)"/><path class="cls-37" d="M245.07,346.41s-1,3.95-2.44,8.33a18.17,18.17,0,0,1-3.12,6.21s3.33.73,4.87-1.47,3.82-9.82,7.21-9.29a8.91,8.91,0,0,0-.92-1.62C250.08,347.75,245.07,346.41,245.07,346.41Z" transform="translate(57.46)"/><path class="cls-37" d="M261.34,221.89l15.57,66.17,16.82,52.49,6.7-1.25a231.06,231.06,0,0,0-5.16-39.62c-1-4.45-3.59-9.23-4.14-12.82-.48-3.15.16-5.4-.2-12.75-.43-8.89-1.6-20.63-4.72-29.1,0,0,6.11-11.91.08-23.86Z" transform="translate(57.46)"/><polygon class="cls-37" points="353.74 350.9 358.58 349.24 358.09 340.87 357.26 333.22 349.65 334.06 351.81 342.98 353.74 350.9"/><path class="cls-34" d="M291.72,362.47a8.45,8.45,0,0,1,2.25-2.09h0s2.11-3.53,1.3-12.34l3.47-1.91a3.27,3.27,0,0,1,3.71.45,2.11,2.11,0,0,1,.36.43,24.71,24.71,0,0,1,1.08,2.61,78.14,78.14,0,0,1,2.43,9.28l-.67.19-1.75-5.77c-.57-2-1.53.77-1.42,3s-.23,4.76-4.55,6C292.91,363.69,290.76,364,291.72,362.47Z" transform="translate(57.46)"/><path class="cls-37" d="M295.15,344.85s.21,4.06,0,8.68a18.24,18.24,0,0,1-1.22,6.85s3.4-.26,4.25-2.81.86-10.5,4.26-11a8.25,8.25,0,0,0-1.35-1.29C300.34,344.7,295.15,344.85,295.15,344.85Z" transform="translate(57.46)"/><path class="cls-37" d="M211.07,166.78l3.36,3.43c3,.53,3.45,4.81,3.45,4.81.68.4,5.7,4.56,7.21,5.58l-2.88,3.3a63,63,0,0,0-6.25-5.66s-7.58-3.43-8.92-4.82,0-6.21,0-6.21Z" transform="translate(57.46)"/><path class="cls-25" d="M221,176.09c5,3,12.5,7.74,12.5,7.74A166.72,166.72,0,0,1,244.23,171a33.63,33.63,0,0,1,8.15-6.72v14.36c-3.47,3.55-14.4,14.33-19,14.33-3.82,0-11.56-7.53-16-12.22Z" transform="translate(57.46)"/><path class="cls-38" d="M244.63,186a135.1,135.1,0,0,0,5-13.58l2,3.59-.75,4.19C249.2,181.8,247,183.93,244.63,186Z" transform="translate(57.46)"/><path class="cls-34" d="M287.48,170.2a295.17,295.17,0,0,1-5.63,39s13.55,19,8.84,60.94c0,0-10.58,4.32-46.46-.9L248.79,209s-1.52-38.94,2.61-43.29c3.67-3.85,19.62-8.9,31.83-2.89A7.67,7.67,0,0,1,287.48,170.2Z" transform="translate(57.46)"/><path class="cls-25" d="M270.54,207.86s-10.65,1.85-18.16,0v4.57s5.58.8,18.16,0Z" transform="translate(57.46)"/><path class="cls-39" d="M270.54,207.86s-10.65,1.85-18.16,0v4.57s5.58.8,18.16,0Z" transform="translate(57.46)"/><path class="cls-9" d="M263.37,209a2.15,2.15,0,0,0-1.9-2.05c-1.29-.25-4.9-.18-5,2.6s-.6,4.78,2.12,4.94,4.83.37,4.75-1.74l-4.92,0,.06-4.13Z" transform="translate(57.46)"/><path class="cls-37" d="M276.75,146.05c-1.4,4-3.25,11.09-1.73,15.18a2.24,2.24,0,0,1-.87,2.65c-3.07,2.21-8.07,4-11.83,3.61-4.83-.53-3.57-4-2.34-5.82.33-.5.84-1.2,1.44-1.31,4.74-.8,5.64-4.37,5.27-8Z" transform="translate(57.46)"/><path class="cls-40" d="M272.65,148.66l-6,3.73a14.55,14.55,0,0,1,0,2.64,7.32,7.32,0,0,0,6-3.39C273.36,150.37,273.15,148.89,272.65,148.66Z" transform="translate(57.46)"/><path class="cls-34" d="M268.71,129.76A30.67,30.67,0,0,1,264,138c-2.1,2.37-5.16,4.1-8.31,3.82,1.55-1.1,3.24-2.45,3.4-4.34.12-1.52-.79-2.91-1.18-4.38a7,7,0,0,1,2.92-7.41,5.32,5.32,0,0,1,4.08-.88,3.46,3.46,0,0,1,2.69,3C268,128.32,268.3,129.17,268.71,129.76Z" transform="translate(57.46)"/><path class="cls-37" d="M278.63,139.53c-1.74,6.2-2.45,9.91-6.32,12.45-5.81,3.82-12.94-.75-13.08-7.32-.13-6,2.74-15.07,9.42-16.24a8.78,8.78,0,0,1,10,11.11Z" transform="translate(57.46)"/><path class="cls-34" d="M264.16,124.83a2.6,2.6,0,0,0-.52,1.47,4,4,0,0,0,3.39,4c.71.09,1.64.11,1.85.8a2.42,2.42,0,0,1-.12,1.12,2.81,2.81,0,0,0,1.57,2.79,8.32,8.32,0,0,0,3.32.76c-.7-.73-.51-2.1-.35-3.09s.55-1.95.65-3c.18-1.92.77-4.48-.84-5.53S266.38,121.88,264.16,124.83Z" transform="translate(57.46)"/><path class="cls-41" d="M264.82,138.7a18.81,18.81,0,0,1-3.53,3.71,3.06,3.06,0,0,0,2.31,1.08Z" transform="translate(57.46)"/><path class="cls-34" d="M270.91,137.26a.43.43,0,0,0,.16,0,.33.33,0,0,0,.15-.41,3.08,3.08,0,0,0-2.18-1.77.31.31,0,0,0-.35.26.31.31,0,0,0,.26.35h0a2.43,2.43,0,0,1,1.71,1.42A.32.32,0,0,0,270.91,137.26Z" transform="translate(57.46)"/><path class="cls-34" d="M261.15,134.33a.3.3,0,0,0,.29,0,2.44,2.44,0,0,1,2.2-.18.3.3,0,1,0,.28-.54,3.07,3.07,0,0,0-2.81.18.29.29,0,0,0-.11.4h0A.24.24,0,0,0,261.15,134.33Z" transform="translate(57.46)"/><path class="cls-9" d="M274.79,159.21l-11.26,8-1-7.2-1.85.48a1.15,1.15,0,0,0-.87.88c-.36,1.7-1.72,5.85-1.64,9.58,0,0,2.63-5.18,5-1.07,0,0,4.79-4.24,7.32,2.17a54.47,54.47,0,0,0,4.3-7.34c1.3-3.05,2.17-4.7,2.17-4.7Z" transform="translate(57.46)"/><path class="cls-25" d="M275.62,159.51a274.47,274.47,0,0,0-6.21,40c-1.4,20.16-1.69,26.25,6.28,25.38s14.5-1.89,13.34-4.79-5.51-9.42-5.22-12.76,3-29.28,3.36-33.21S289.83,162,275.62,159.51Z" transform="translate(57.46)"/><path class="cls-42" d="M269.41,199.52c.12-1.78.27-3.56.44-5.33l14.84,4.39c-.23,2.24-.43,4.24-.59,5.8l-9.9-2.73.11-.75-4.95-.75C269.38,199.94,269.39,199.74,269.41,199.52Z" transform="translate(57.46)"/><path class="cls-25" d="M261.63,160.19s-6.53,12.29-7,32.77.46,31.39-3.34,32-4.64-2-4.64-2,1.12-11.13,1.12-13.85-1.19-19.13,0-30.88,0-11,2-12.33S256.3,161.27,261.63,160.19Z" transform="translate(57.46)"/><path class="cls-38" d="M284.93,196.26,281,173.78s3.24,3.3,5.63,5.81C286.18,184.19,285.51,190.67,284.93,196.26Z" transform="translate(57.46)"/><path class="cls-37" d="M265,187.17c1.38.29,8.75,5,8.75,5s4,1.21,5.85,1.55l-2,4.5c-1.6-.72-5.07-1.73-5.07-1.73s-2.95-.1-3.93-.29c0,0-2.85.78-4.52-.3a8.84,8.84,0,0,1-2.66-3.73S263.64,186.87,265,187.17Z" transform="translate(57.46)"/><path class="cls-25" d="M277.84,192.79c3.93.73,8.8.81,8.8.17,0-1-3.73-13.31-5.76-17.83-1.3-2.9-5.33-10.12-.89-12.65,2.37-1.35,9.77-.41,13.25,14.92s1.88,20.89-1.49,23.28c-3.54,2.51-11.53-.46-15.87-2.39Z" transform="translate(57.46)"/><path class="cls-34" d="M268.66,138.8c-.1.51-.46.88-.8.81s-.53-.53-.42-1.06.46-.87.79-.81S268.76,138.28,268.66,138.8Z" transform="translate(57.46)"/><path class="cls-34" d="M262.81,137.65c-.1.51-.46.88-.8.81s-.53-.53-.43-1.06.46-.88.8-.81S262.91,137.12,262.81,137.65Z" transform="translate(57.46)"/><path class="cls-34" d="M262.52,136.65l-1.17-.6S261.8,137.14,262.52,136.65Z" transform="translate(57.46)"/><path class="cls-34" d="M268.38,137.8l-1.18-.6S267.65,138.29,268.38,137.8Z" transform="translate(57.46)"/><path class="cls-34" d="M265.21,146.53a6.74,6.74,0,0,1-1.1,0,.19.19,0,0,1-.18-.2h0a.19.19,0,0,1,.2-.18,5.19,5.19,0,0,0,4.34-1.75.21.21,0,0,1,.28,0,.2.2,0,0,1,0,.27A5.42,5.42,0,0,1,265.21,146.53Z" transform="translate(57.46)"/><path class="cls-34" d="M271.24,124.85c-1.4,4.12,3.23,15.47,3.78,16.76a5.3,5.3,0,0,1,.24,4.09,1.43,1.43,0,0,1,1.82-.67l-.08,1.76a7.06,7.06,0,0,0-1.7,5.16c3.66-1,6.48-3.33,9.31-5.85a11.54,11.54,0,0,0,2.37-2.57,3.94,3.94,0,0,0,.46-3.36,1.63,1.63,0,0,1-2.07.19,3,3,0,0,1-.84-2c-.06-.75,0-1.51,0-2.26,0-2.87-1.78-6.66-4.34-7.95A80.63,80.63,0,0,0,271.24,124.85Z" transform="translate(57.46)"/><path class="cls-37" d="M280.43,146.05a6.19,6.19,0,0,1-4.29,1.84c-2.15,0-2.66-2-1.58-3.78,1-1.55,3.24-3.43,5.16-2.61A2.73,2.73,0,0,1,280.43,146.05Z" transform="translate(57.46)"/></g><g class="cls-1"><circle class="cls-43" cx="193.11" cy="75.28" r="54.64" transform="translate(60.79 158.6) rotate(-45)"/><path class="cls-34" d="M144.89,166.09c-6.66,3.36-23.82-11.34-32.44-19.38a6.05,6.05,0,1,1,8.54-8.56c4.84,5.21,13.11,13.32,16.49,11.84s2.23-15,2.23-15l2,.54,5.26,1.39,1.23.33S151.35,162.84,144.89,166.09Z" transform="translate(57.46)"/><polygon class="cls-44" points="226.36 328.58 233.44 344.33 241.12 341.06 234.03 324.11 226.36 328.58"/><path class="cls-25" d="M126.34,191s24,55,31.16,72.79c6.5,16.24,22.79,66,22.79,66l-10,4.65s-16.32-30.4-20.73-40.92c-2.19-5.21-5.26-16.23-7.7-21.31-6.27-13-23.59-36.18-30.07-49.1-2.37-4.72-9.93-27.49-9.93-27.49Z" transform="translate(57.46)"/><path class="cls-25" d="M184.7,341.13a.19.19,0,0,1-.19-.1.19.19,0,0,1,0-.23c.09-.12,2.12-2.73,3.5-2.85a.9.9,0,0,1,.71.23.79.79,0,0,1,.3.82c-.15.55-1.05,1.1-2,1.46A13,13,0,0,1,184.7,341.13Zm.48-.48c1.45-.36,3.33-1.11,3.49-1.76,0-.09,0-.22-.18-.4a.46.46,0,0,0-.44-.13,1.17,1.17,0,0,0-.36.08A8.81,8.81,0,0,0,185.18,340.65Z" transform="translate(57.46)"/><path class="cls-25" d="M184.6,341.15a.19.19,0,0,1-.13-.14c0-.1-.59-2.34.06-3.55a1.39,1.39,0,0,1,.87-.71c.5-.14.75.07.84.28.48.84-.7,3.28-1.44,4.05l-.07,0A.15.15,0,0,1,184.6,341.15Zm.81-4a1,1,0,0,0-.53.48,5.11,5.11,0,0,0-.12,2.85c.71-1,1.41-2.77,1.17-3.3,0,0-.1-.17-.43-.07l-.09,0Z" transform="translate(57.46)"/><path class="cls-34" d="M183.46,340.05l-8.12,3.19a.75.75,0,0,0-.45.8l1,7.7a1.19,1.19,0,0,0,1.31,1.08,1.05,1.05,0,0,0,.24-.06c2.91-1.2,5.45-2.39,9.1-3.82,4.3-1.68,3.4-.7,8.49-2.6,3.06-1.16,2.31-5.11,1-4.78-6.2,1.51-7.49-.17-10.57-1.56A2.68,2.68,0,0,0,183.46,340.05Z" transform="translate(57.46)"/><path class="cls-35" d="M129.52,251.67c-2.42-12.83-9.33-25.75-9.33-25.75l-5,3.34C119.1,235.92,124.47,243.93,129.52,251.67Z" transform="translate(57.46)"/><polygon class="cls-44" points="153.23 332.4 150.7 349.55 158.8 351.6 161.97 333.47 153.23 332.4"/><path class="cls-25" d="M122.34,194.4s1.2,67.06-2.28,89.32c-2.32,14.86-15.84,58.76-15.84,58.76L93,339.36s2.77-34.79,4.86-46.27c.61-3.35,2.37-9.93,2.77-13.32,1.37-11.58,1.06-35.17-.49-46.77-.64-4.74-3.63-13.87-4.34-18.6-.61-4.11-1.12-16.61-1.12-16.61Z" transform="translate(57.46)"/><path class="cls-25" d="M102.28,353.39a.24.24,0,0,1-.11-.21.19.19,0,0,1,.14-.17c.14,0,3.22-.88,4.42-.12a1.08,1.08,0,0,1,.46.62.78.78,0,0,1-.2.85c-.42.35-1.46.24-2.41,0A13.84,13.84,0,0,1,102.28,353.39Zm.65-.09c1.39.62,3.33,1.18,3.82.75.07-.05.15-.15.07-.44a.59.59,0,0,0-.29-.38,1.75,1.75,0,0,0-.34-.15A8.16,8.16,0,0,0,102.93,353.3Z" transform="translate(57.46)"/><path class="cls-25" d="M102.19,353.35a.19.19,0,0,1,0-.2c0-.1.79-2.26,2-2.83a1.3,1.3,0,0,1,1.09,0c.49.2.58.52.55.75-.07,1-2.36,2.2-3.38,2.37a.11.11,0,0,1-.08,0A.16.16,0,0,1,102.19,353.35Zm2.82-2.73a.92.92,0,0,0-.69.06,4.59,4.59,0,0,0-1.64,2.22c1.1-.32,2.66-1.36,2.75-1.93,0-.05,0-.2-.31-.33l-.11,0Z" transform="translate(57.46)"/><path class="cls-34" d="M101.84,351.75l-8.4-2.5a.68.68,0,0,0-.8.37l-3.32,6.85a1.31,1.31,0,0,0,.49,1.69,1.15,1.15,0,0,0,.23.1c3,.85,5.78,1.47,9.55,2.59,4.44,1.33,3.18,1.56,8.39,3.19,3.14,1,4.66-2.67,3.37-3.26-5.91-2.64-6.06-4.8-7.84-7.84A2.85,2.85,0,0,0,101.84,351.75Z" transform="translate(57.46)"/><polygon class="cls-34" points="166.57 197.32 153.61 200.12 154.07 203.37 167.31 200.51 166.57 197.32"/><polygon class="cls-34" points="183.4 193.72 178.03 194.84 178.84 198.02 184.91 196.74 183.4 193.72"/><polygon class="cls-9" points="175.66 195.35 169.26 196.74 169.98 199.93 176.41 198.54 175.66 195.35"/><path class="cls-34" d="M91,110.08s5.37-2.78,4.64,4l-4.53-.73Z" transform="translate(57.46)"/><path class="cls-44" d="M86.88,130.11c2.27,3.61,5.65,10.07,5.07,14.39a2.21,2.21,0,0,0,1.44,2.38,15.43,15.43,0,0,0,11,.39c4.6-1.58,4-4.12,2.36-5.67a2.12,2.12,0,0,0-1.62-.6c-4.81.26-6.55-3.36-7-6.94Z" transform="translate(57.46)"/><path class="cls-40" d="M91.47,131.74l6.65,2.31a16.22,16.22,0,0,0,.59,2.57,7.33,7.33,0,0,1-6.58-2C91.16,133.57,91,132.08,91.47,131.74Z" transform="translate(57.46)"/><path class="cls-44" d="M82.75,124.38c3.08,5.65,4.59,9.1,8.94,10.71,6.53,2.43,12.49-3.6,11.17-10-1.2-5.84-6-14.06-12.82-13.72a8.8,8.8,0,0,0-8.4,9.15A8.69,8.69,0,0,0,82.75,124.38Z" transform="translate(57.46)"/><path class="cls-34" d="M92.55,121.24c.22.48.65.75,1,.6s.38-.64.16-1.12-.65-.74-1-.59S92.33,120.77,92.55,121.24Z" transform="translate(57.46)"/><path class="cls-34" d="M97.61,118.31c.23.47.65.74,1,.59s.38-.64.16-1.11-.66-.74-1-.6S97.39,117.84,97.61,118.31Z" transform="translate(57.46)"/><path class="cls-45" d="M96.08,119.94a18.39,18.39,0,0,0,4.74,2,3.09,3.09,0,0,1-1.69,1.92Z" transform="translate(57.46)"/><path class="cls-34" d="M90.85,120.68a.44.44,0,0,1-.15,0,.31.31,0,0,1-.25-.36,3.07,3.07,0,0,1,1.62-2.29.3.3,0,0,1,.4.15.31.31,0,0,1-.15.41h0a2.46,2.46,0,0,0-1.27,1.83A.28.28,0,0,1,90.85,120.68Z" transform="translate(57.46)"/><path class="cls-34" d="M99.06,116a.28.28,0,0,1-.29,0,2.44,2.44,0,0,0-2.2.18.31.31,0,0,1-.43-.07.3.3,0,0,1,.07-.42,3.05,3.05,0,0,1,2.8-.27.3.3,0,0,1,.18.38h0A.26.26,0,0,1,99.06,116Z" transform="translate(57.46)"/><path class="cls-34" d="M77.5,156.25l17,43L126.34,191,120,140.15a4.39,4.39,0,0,0-6-3.33l-34,14.1A4.36,4.36,0,0,0,77.5,156.25Z" transform="translate(57.46)"/><polygon class="cls-25" points="155.1 146.88 156.78 144.66 159.84 144.37 161.04 147.65 161.26 150.05 162.99 151.73 171.44 179.29 169.7 184.18 164.31 181.46 158.87 153.81 158.89 151.08 155.22 148.08 155.1 146.88"/><polygon class="cls-34" points="148.28 143.78 145.45 147.6 153.37 150.84 156.96 145.34 165.82 144.89 163.56 139.97 160.67 139.45 155.87 143.28 148.28 143.78"/><polygon class="cls-36" points="148.28 143.78 145.45 147.6 153.37 150.84 156.96 145.34 165.82 144.89 163.56 139.97 160.67 139.45 155.87 143.28 148.28 143.78"/><path class="cls-34" d="M95.58,127.29a5.24,5.24,0,0,1-.92-.31.18.18,0,0,1-.11-.24h0a.21.21,0,0,1,.26-.09,5.29,5.29,0,0,0,4.73-.23.19.19,0,0,1,.27,0,.2.2,0,0,1,0,.27A5.41,5.41,0,0,1,95.58,127.29Z" transform="translate(57.46)"/><path class="cls-34" d="M83.28,130.11s6.39-1.52.73-8.57c0,0-.15-1.08-.54-4.48,0,0,12.73-7,8.73-10.6S86,108.82,86,108.82s-5.59-2.46-6,4.37c0,0-5.64,2.41-2.21,7.32a5.07,5.07,0,0,0,2,6.18S80.57,130,83.28,130.11Z" transform="translate(57.46)"/><path class="cls-44" d="M82.11,130.67a6.24,6.24,0,0,0,4.39,1.64c2.15-.1,2.56-2.17,1.41-3.84-1-1.51-3.41-3.28-5.29-2.37A2.73,2.73,0,0,0,82.11,130.67Z" transform="translate(57.46)"/><rect class="cls-25" x="15.37" y="162.25" width="162.47" height="9.7" transform="translate(-30.99 112.21) rotate(-43.45)"/><rect class="cls-39" x="15.37" y="162.25" width="162.47" height="9.7" transform="translate(-30.99 112.21) rotate(-43.45)"/><path class="cls-25" d="M108.12,172l-57,54a7.65,7.65,0,0,1-10.83-.3L35,220.19a7.66,7.66,0,0,1,.29-10.83l57-54a8.55,8.55,0,0,1,12.08.33l4,4.26A8.55,8.55,0,0,1,108.12,172Z" transform="translate(57.46)"/><path class="cls-46" d="M108.12,172l-57,54a7.65,7.65,0,0,1-10.83-.3L35,220.19a7.66,7.66,0,0,1,.29-10.83l57-54a8.55,8.55,0,0,1,12.08.33l4,4.26A8.55,8.55,0,0,1,108.12,172Z" transform="translate(57.46)"/><path class="cls-25" d="M192.7,134.48l-1.68,0a59.71,59.71,0,1,1,1.68,0ZM192.53,25.4a49.54,49.54,0,0,0-1.24,99.06,49.54,49.54,0,0,0,2.64-99Z" transform="translate(57.46)"/><path class="cls-44" d="M85.44,182.54l5-.06,4-5.24,2.16.55a3.54,3.54,0,0,1,2.65,3.09h0a3.51,3.51,0,0,1-1.33,3.1l-4.29,3.39a3.57,3.57,0,0,1-2.94.68l-.58-.12-5.92-.26Z" transform="translate(57.46)"/><path class="cls-34" d="M86,153.6a6.08,6.08,0,0,0-9.23-.47c-8.09,8.58-22.89,25.65-19.58,32.33C60.36,191.94,86,189,86,189l2.31-8.52s-13.48,1.15-15-2.32,6.7-11.61,11.94-16.42A6,6,0,0,0,86,153.6Z" transform="translate(57.46)"/><path class="cls-46" d="M184.34,29.07c-18.42,4-38.65,25.28-38.52,48,.84,5,1.41,8,2.31,12a1.18,1.18,0,0,0,2.27.12c8.84-25.12,24.28-44.24,47-58.19a1.18,1.18,0,0,0-.59-2.19C192.64,28.71,189.45,28.81,184.34,29.07Z" transform="translate(57.46)"/><g class="cls-16"><path class="cls-9" d="M237.94,61.08c-10.45,24.07-28.48,45.8-49.81,61a1.21,1.21,0,0,1-.66.22l-5.73.06a1.13,1.13,0,0,1-.75-2c20.67-18.2,39.18-40.51,52.61-64.65a1.94,1.94,0,0,1,3.57.47c.27,1.09.54,2.22.88,3.63A2,2,0,0,1,237.94,61.08Z" transform="translate(57.46)"/></g><path class="cls-44" d="M147.28,132.69l-.12.58-.14,3.8-5.26-1.39,0-2.74L136.45,129l.53-2.17a3.54,3.54,0,0,1,3.08-2.67l.35,0a3.55,3.55,0,0,1,2.75,1.33l3.41,4.28A3.55,3.55,0,0,1,147.28,132.69Z" transform="translate(57.46)"/></g></g></svg>